<?xml version="1.0" encoding="UTF-8" standalone="no"?>
<svg
   xmlns:dc="http://purl.org/dc/elements/1.1/"
   xmlns:cc="http://creativecommons.org/ns#"
   xmlns:rdf="http://www.w3.org/1999/02/22-rdf-syntax-ns#"
   xmlns:svg="http://www.w3.org/2000/svg"
   xmlns="http://www.w3.org/2000/svg"
   id="svg1246"
   viewBox="0 0 43.458129 20.682264"
   style="clip-rule:evenodd;fill-rule:evenodd;image-rendering:optimizeQuality;shape-rendering:geometricPrecision;text-rendering:geometricPrecision"
   version="1.1"
   height="136"
   width="286"
   xml:space="preserve"><metadata
   id="metadata1250"><rdf:RDF><cc:Work
       rdf:about=""><dc:format>image/svg+xml</dc:format><dc:type
         rdf:resource="http://purl.org/dc/dcmitype/StillImage" /><dc:title></dc:title></cc:Work></rdf:RDF></metadata>
 <defs
   id="defs1216">
  <style
   id="style1214"
   type="text/css">
   <![CDATA[
    .str0 {stroke:black;stroke-width:0.3;stroke-miterlimit:22.9256}
    .fil0 {fill:black}
    .fil7 {fill:black;fill-rule:nonzero}
    .fil1 {fill:#1A1A1A;fill-rule:nonzero}
    .fil3 {fill:#9D231F;fill-rule:nonzero}
    .fil2 {fill:#B3B3B3;fill-rule:nonzero}
    .fil4 {fill:#C02222;fill-rule:nonzero}
    .fil5 {fill:#E31E25;fill-rule:nonzero}
    .fil6 {fill:white;fill-rule:nonzero}
   ]]>
  </style>
 </defs>
 <g
   transform="translate(-150.69736,-29.897736)"
   id="Layer_x0020_1">
  <metadata
   id="CorelCorpID_0Corel-Layer" />
  
  
  <g
   transform="translate(0.1014245,-0.061132)"
   id="_2213890852384">
   <path
   style="fill:#ffffff;fill-rule:nonzero"
   id="path1234"
   d="m 150.59,50.58 23.48,-19.87 h 0.01 c 0.5,-0.43 1.16,-0.69 1.88,-0.69 0.51,0 0.99,0.13 1.41,0.37 h 0.01 l 16.68,9.58 v 0 l -2.71,10.61 z"
   class="fil6" />
   <path
   style="fill:#000000;fill-rule:nonzero"
   id="path1236"
   d="m 173.42,43.33 c -0.01,0.06 -0.03,0.11 -0.06,0.15 0.07,0.09 0.11,0.21 0.09,0.32 l -0.09,0.5 c -0.05,0.28 -0.37,0.5 -0.7,0.5 h -2.36 l 0.44,-2.43 h 2.24 c 0.33,0 0.57,0.22 0.52,0.5 z m -2.21,-0.03 h 1.56 l 0.07,-0.4 h -1.56 z m 5.76,-0.93 -0.43,2.43 h -0.64 l 0.17,-0.95 h -1.75 l -0.17,0.95 h -0.63 l 0.43,-2.43 h 0.64 l -0.17,0.95 h 1.75 l 0.17,-0.95 z m 3.09,0.73 h -0.65 l 0.04,-0.2 h -1.68 l -0.08,0.42 h 1.72 c 0.33,0 0.57,0.23 0.52,0.5 l -0.09,0.48 c -0.05,0.28 -0.36,0.5 -0.69,0.5 h -1.75 c -0.34,0 -0.57,-0.22 -0.52,-0.5 l 0.04,-0.22 h 0.64 l -0.04,0.2 h 1.68 l 0.08,-0.43 h -1.71 c -0.34,0 -0.57,-0.22 -0.52,-0.5 l 0.08,-0.48 c 0.05,-0.28 0.36,-0.5 0.7,-0.5 h 1.75 c 0.33,0 0.57,0.22 0.52,0.5 z m 0.96,0.51 -0.15,0.83 c 0,0.01 0.01,0.02 0.02,0.02 h 0.71 l -0.06,0.34 h -0.71 c -0.25,0 -0.42,-0.16 -0.38,-0.36 l 0.29,-1.68 h 0.43 l -0.09,0.5 h 0.73 l -0.06,0.35 z m 2.58,-0.35 -0.07,0.35 h -1.04 c -0.01,0 -0.02,0.01 -0.03,0.02 l -0.2,1.17 h -0.43 l 0.21,-1.17 c 0.04,-0.2 0.27,-0.37 0.51,-0.37 z m 1.85,0.37 -0.21,1.17 h -1.46 c -0.25,0 -0.42,-0.16 -0.38,-0.36 l 0.1,-0.58 h 1.48 l 0.04,-0.23 c 0.01,-0.01 0,-0.02 -0.02,-0.02 h -1.16 l 0.06,-0.35 h 1.17 c 0.24,0 0.41,0.17 0.38,0.37 z m -0.53,0.58 h -1.06 l -0.04,0.23 c 0,0.01 0.01,0.02 0.02,0.02 h 1.04 z m 2.77,-0.58 -0.21,1.17 h -0.43 l 0.21,-1.17 c 0,-0.01 0,-0.02 -0.02,-0.02 h -1.01 c -0.01,0 -0.03,0.01 -0.03,0.02 l -0.21,1.17 h -0.42 l 0.27,-1.54 h 1.46 c 0.25,0 0.42,0.17 0.39,0.37 z m 2.19,0.07 h -0.43 l 0.01,-0.07 c 0.01,-0.01 0,-0.02 -0.01,-0.02 h -1.02 c -0.01,0 -0.02,0.01 -0.02,0.02 l -0.04,0.21 c 0,0.01 0,0.02 0.02,0.02 h 1.01 c 0.25,0 0.42,0.16 0.38,0.36 l -0.03,0.22 c -0.04,0.2 -0.27,0.36 -0.52,0.36 h -1.01 c -0.25,0 -0.42,-0.16 -0.38,-0.36 l 0.01,-0.07 h 0.42 l -0.01,0.07 c 0,0.01 0.01,0.02 0.02,0.02 h 1.02 c 0.01,0 0.02,-0.01 0.02,-0.02 l 0.04,-0.22 c 0,-0.01 -0.01,-0.01 -0.02,-0.01 h -1.01 c -0.25,0 -0.42,-0.17 -0.39,-0.37 l 0.04,-0.21 c 0.04,-0.2 0.27,-0.37 0.51,-0.37 h 1.02 c 0.25,0 0.41,0.17 0.38,0.37 z m -18.84,0.58 h 1.68 l 0.08,-0.45 h -1.68 z"
   class="fil7" />
   <path
   style="fill:#9d231f;fill-rule:nonzero"
   id="path1238"
   d="m 168.81,43.52 0.44,2.37 c 0,0.02 0.01,0.04 0.01,0.05 0,0.09 -0.06,0.17 -0.13,0.2 l -1.29,0.75 v 0 0 0 0 l -0.38,-0.37 v 0 l -1.5,-1.46 -2.29,-0.81 v 0 c -0.09,-0.03 -0.15,-0.11 -0.15,-0.21 0,0 0,0 0,0 v -0.01 -1.49 l 2.52,-0.7 1.85,-1.57 v 0 c 0.04,-0.04 0.09,-0.06 0.15,-0.06 0.04,0 0.08,0.01 0.11,0.03 v 0 l 1.31,0.75 v 0 c -0.22,0.84 -0.43,1.68 -0.65,2.53 z m -0.97,-1.6 v 0 l -2.7,1.55 v 0 l 2.7,1.55 v 0 0 z"
   class="fil3" />
   <path
   style="fill:#c02222;fill-rule:nonzero"
   id="path1240"
   d="m 168.95,42.96 -1.11,0.64 v -1.68 0 l -2.7,1.55 v 0 l 1.46,0.84 -1.05,0.61 -1.88,-0.67 v 0 c -0.09,-0.03 -0.15,-0.11 -0.15,-0.21 0,0 0,0 0,0 v -0.01 -1.49 l 2.52,-0.7 1.85,-1.57 v 0 c 0.04,-0.04 0.09,-0.06 0.15,-0.06 0.04,0 0.08,0.01 0.11,0.03 v 0 l 1.31,0.75 v 0 z"
   class="fil4" />
   <path
   style="fill:#e31e25;fill-rule:nonzero"
   id="path1242"
   d="m 169.31,41.56 -1.47,0.85 v -0.49 0 l -2.7,1.55 v 0 l 0.42,0.24 -1.3,0.75 -0.59,-0.21 v 0 c -0.09,-0.03 -0.15,-0.11 -0.15,-0.21 0,0 0,0 0,0 v -0.01 -1.49 l 2.52,-0.7 1.85,-1.57 v 0 c 0.04,-0.04 0.09,-0.06 0.15,-0.06 0.04,0 0.08,0.01 0.11,0.03 v 0 l 1.31,0.75 v 0 z"
   class="fil5" />
  </g>
 </g>
</svg>