<?xml version="1.0" encoding="UTF-8" standalone="no"?>
<svg
   xmlns:dc="http://purl.org/dc/elements/1.1/"
   xmlns:cc="http://creativecommons.org/ns#"
   xmlns:rdf="http://www.w3.org/1999/02/22-rdf-syntax-ns#"
   xmlns:svg="http://www.w3.org/2000/svg"
   xmlns="http://www.w3.org/2000/svg"
   id="svg1246"
   viewBox="0 0 48.62448 23.571698"
   style="clip-rule:evenodd;fill-rule:evenodd;image-rendering:optimizeQuality;shape-rendering:geometricPrecision;text-rendering:geometricPrecision"
   version="1.1"
   height="155"
   width="320"
   xml:space="preserve"><metadata
   id="metadata1250"><rdf:RDF><cc:Work
       rdf:about=""><dc:format>image/svg+xml</dc:format><dc:type
         rdf:resource="http://purl.org/dc/dcmitype/StillImage" /><dc:title></dc:title></cc:Work></rdf:RDF></metadata>
 <defs
   id="defs1216">
  <style
   id="style1214"
   type="text/css">
   <![CDATA[
    .str0 {stroke:black;stroke-width:0.3;stroke-miterlimit:22.9256}
    .fil0 {fill:black}
    .fil7 {fill:black;fill-rule:nonzero}
    .fil1 {fill:#1A1A1A;fill-rule:nonzero}
    .fil3 {fill:#9D231F;fill-rule:nonzero}
    .fil2 {fill:#B3B3B3;fill-rule:nonzero}
    .fil4 {fill:#C02222;fill-rule:nonzero}
    .fil5 {fill:#E31E25;fill-rule:nonzero}
    .fil6 {fill:white;fill-rule:nonzero}
   ]]>
  </style>
 </defs>
 <g
   transform="translate(-68.767358,-28.478303)"
   id="Layer_x0020_1">
  <metadata
   id="CorelCorpID_0Corel-Layer" />
  
  <g
   transform="translate(0.104598,-0.030848)"
   id="_2213890837728">
   <path
   style="fill:#1a1a1a;fill-rule:nonzero"
   id="path1221"
   d="m 116.01,28.54 1.2,6.48 c 0.05,0.26 0.08,0.53 0.08,0.81 0,1.51 -0.87,2.82 -2.15,3.46 L 92.9,52.05 v 0 0 0 0 L 86.41,45.77 V 45.76 L 68.66,28.54 Z"
   class="fil1" />
   <g
   id="g1231">
    <path
   style="fill:#b3b3b3;fill-rule:nonzero"
   id="path1223"
   d="m 94.14,36.18 c -0.01,0.06 -0.03,0.11 -0.06,0.16 0.07,0.08 0.11,0.2 0.09,0.32 l -0.09,0.52 c -0.05,0.28 -0.37,0.51 -0.72,0.51 h -2.4 L 91.4,35.2 h 2.29 c 0.34,0 0.58,0.23 0.53,0.51 z m -2.26,-0.03 h 1.6 l 0.07,-0.41 h -1.59 z m 5.9,-0.95 -0.44,2.49 h -0.66 l 0.18,-0.98 h -1.79 l -0.18,0.98 h -0.65 l 0.44,-2.49 h 0.65 l -0.17,0.97 h 1.79 l 0.17,-0.97 z m 3.15,0.74 h -0.66 l 0.03,-0.2 h -1.71 l -0.08,0.43 h 1.75 c 0.35,0 0.59,0.23 0.54,0.51 l -0.09,0.49 c -0.05,0.29 -0.37,0.52 -0.71,0.52 h -1.79 c -0.34,0 -0.58,-0.23 -0.53,-0.52 l 0.04,-0.23 h 0.65 l -0.03,0.21 h 1.71 l 0.08,-0.44 h -1.75 c -0.34,0 -0.58,-0.23 -0.53,-0.51 l 0.09,-0.49 c 0.05,-0.28 0.37,-0.51 0.71,-0.51 h 1.79 c 0.34,0 0.58,0.23 0.53,0.51 z m 0.98,0.53 -0.15,0.84 c 0,0.01 0.01,0.02 0.02,0.02 h 0.73 l -0.07,0.36 h -0.72 c -0.26,0 -0.43,-0.17 -0.39,-0.38 l 0.3,-1.72 h 0.43 l -0.09,0.52 h 0.75 l -0.06,0.36 z m 2.64,-0.36 -0.07,0.36 h -1.06 c -0.02,0 -0.03,0 -0.03,0.02 l -0.21,1.2 h -0.44 l 0.22,-1.2 c 0.03,-0.21 0.27,-0.38 0.52,-0.38 z m 1.89,0.38 -0.21,1.2 h -1.5 c -0.25,0 -0.42,-0.17 -0.39,-0.38 l 0.11,-0.59 h 1.52 l 0.04,-0.23 c 0,-0.02 -0.01,-0.02 -0.02,-0.02 h -1.19 l 0.06,-0.36 h 1.19 c 0.25,0 0.43,0.17 0.39,0.38 z m -0.54,0.59 h -1.08 l -0.04,0.23 c 0,0.01 0,0.02 0.02,0.02 h 1.06 z m 2.83,-0.59 -0.21,1.2 h -0.44 l 0.22,-1.2 c 0,-0.02 -0.01,-0.02 -0.02,-0.02 h -1.04 c -0.01,0 -0.03,0 -0.03,0.02 l -0.21,1.2 h -0.43 l 0.28,-1.58 h 1.49 c 0.25,0 0.43,0.17 0.39,0.38 z m 2.24,0.06 h -0.43 l 0.01,-0.06 c 0,-0.02 -0.01,-0.02 -0.02,-0.02 h -1.04 c -0.01,0 -0.02,0 -0.02,0.02 l -0.04,0.21 c -0.01,0.01 0,0.02 0.02,0.02 h 1.03 c 0.26,0 0.43,0.17 0.39,0.37 l -0.03,0.22 c -0.04,0.21 -0.27,0.38 -0.53,0.38 h -1.03 c -0.26,0 -0.43,-0.17 -0.39,-0.38 l 0.01,-0.07 h 0.43 l -0.01,0.07 c 0,0.01 0.01,0.02 0.02,0.02 h 1.04 c 0.01,0 0.02,-0.01 0.02,-0.02 l 0.04,-0.22 c 0,-0.01 -0.01,-0.01 -0.02,-0.01 h -1.04 c -0.25,0 -0.42,-0.17 -0.39,-0.38 l 0.04,-0.21 c 0.04,-0.21 0.27,-0.38 0.53,-0.38 h 1.03 c 0.26,0 0.43,0.17 0.39,0.38 z m -19.26,0.6 h 1.71 l 0.08,-0.46 h -1.71 z"
   class="fil2" />
    <path
   style="fill:#9d231f;fill-rule:nonzero"
   id="path1225"
   d="m 89.43,36.37 0.45,2.43 c 0,0.02 0,0.03 0,0.05 0,0.09 -0.05,0.17 -0.12,0.21 l -1.32,0.75 v 0 0 0 0 l -0.39,-0.37 v 0 l -1.53,-1.49 -2.35,-0.83 v 0 C 84.08,37.09 84.02,37 84.02,36.9 c 0,0 0,0 0,0 v 0 -1.53 l 2.57,-0.72 1.9,-1.6 v 0 c 0.04,-0.04 0.09,-0.06 0.15,-0.06 0.04,0 0.08,0.01 0.11,0.03 h 0.01 l 1.33,0.77 v 0 c -0.22,0.86 -0.44,1.72 -0.66,2.58 z m -0.99,-1.63 v 0 l -2.77,1.58 v 0 l 2.76,1.59 v 0 0 z"
   class="fil3" />
    <path
   style="fill:#c02222;fill-rule:nonzero"
   id="path1227"
   d="m 89.58,35.8 -1.15,0.66 0.01,-1.72 v 0 l -2.77,1.58 v 0 l 1.5,0.86 -1.08,0.62 -1.92,-0.68 v 0 C 84.08,37.09 84.02,37 84.02,36.9 c 0,0 0,0 0,0 v 0 -1.53 l 2.57,-0.72 1.9,-1.6 v 0 c 0.04,-0.04 0.09,-0.06 0.15,-0.06 0.04,0 0.08,0.01 0.11,0.03 h 0.01 l 1.33,0.77 v 0 z"
   class="fil4" />
    <path
   style="fill:#e31e25;fill-rule:nonzero"
   id="path1229"
   d="m 89.94,34.37 -1.5,0.86 v -0.49 0 l -2.77,1.58 v 0 l 0.43,0.25 -1.33,0.77 -0.6,-0.22 v 0 C 84.08,37.09 84.02,37 84.02,36.9 c 0,0 0,0 0,0 v 0 -1.53 l 2.57,-0.72 1.9,-1.6 v 0 c 0.04,-0.04 0.09,-0.06 0.15,-0.06 0.04,0 0.08,0.01 0.11,0.03 h 0.01 l 1.33,0.77 v 0 z"
   class="fil5" />
   </g>
  </g>
  
 </g>
</svg>